<?xml version="1.0" standalone="no"?>
<!DOCTYPE svg PUBLIC "-//W3C//DTD SVG 20010904//EN"
 "http://www.w3.org/TR/2001/REC-SVG-20010904/DTD/svg10.dtd">
<svg version="1.0" xmlns="http://www.w3.org/2000/svg"
 width="520.000000pt" height="520.000000pt" viewBox="0 0 520.000000 520.000000"
 preserveAspectRatio="xMidYMid meet">
<metadata>
Created by potrace 1.11, written by Peter Selinger 2001-2013
</metadata>
<g transform="translate(0.000000,520.000000) scale(0.100000,-0.100000)"
fill="#000000" stroke="none">
<path d="M2341 4115 c0 -35 2 -37 11 -19 7 15 7 28 -1 40 -9 16 -10 12 -10
-21z"/>
<path d="M2390 4096 c0 -9 5 -16 10 -16 6 0 10 -9 10 -20 0 -11 4 -20 9 -20 6
0 6 12 -1 30 -11 34 -28 49 -28 26z"/>
<path d="M850 3790 c0 -5 5 -10 10 -10 6 0 10 5 10 10 0 6 -4 10 -10 10 -5 0
-10 -4 -10 -10z"/>
<path d="M1520 2530 c-8 -5 -11 -12 -7 -16 4 -4 15 0 24 9 18 18 8 23 -17 7z"/>
<path d="M1478 2483 c7 -3 16 -2 19 1 4 3 -2 6 -13 5 -11 0 -14 -3 -6 -6z"/>
<path d="M1553 2293 c9 -2 23 -2 30 0 6 3 -1 5 -18 5 -16 0 -22 -2 -12 -5z"/>
<path d="M1490 2270 c-13 -8 -12 -10 3 -10 9 0 17 5 17 10 0 12 -1 12 -20 0z"/>
<path d="M4795 2239 c-3 -4 2 -9 10 -13 8 -3 15 -12 15 -21 0 -10 9 -15 28
-14 23 2 24 2 5 6 -27 5 -30 18 -7 31 14 8 10 10 -15 14 -18 3 -34 1 -36 -3z"/>
<path d="M4875 2220 c-8 -13 9 -20 24 -11 10 6 9 10 -3 14 -8 3 -18 2 -21 -3z"/>
<path d="M4816 2156 c3 -8 12 -12 20 -9 21 8 17 23 -6 23 -13 0 -18 -5 -14
-14z"/>
<path d="M4849 2141 l-24 -20 23 -16 c23 -17 22 -35 -3 -35 -7 0 -16 8 -19 18
-4 13 -16 19 -37 19 -16 0 -26 -3 -21 -6 5 -3 11 -13 15 -23 3 -9 19 -19 36
-23 42 -9 61 -33 21 -27 -30 4 -42 -11 -17 -22 9 -5 9 -7 -2 -12 -9 -5 -4 -11
19 -20 38 -17 50 -17 50 -4 0 6 -7 10 -16 10 -8 0 -12 5 -9 10 10 15 36 -8 33
-29 -2 -10 5 -17 20 -19 13 -2 26 -10 29 -18 3 -8 13 -14 22 -14 9 0 24 -9 33
-20 17 -19 16 -19 -15 -13 -18 3 -47 19 -65 35 -20 17 -44 28 -62 28 -16 0
-35 6 -42 13 -16 18 -59 9 -56 -12 2 -9 -4 -16 -12 -16 -8 0 -26 -8 -40 -18
-24 -16 -24 -17 -3 -17 12 0 25 -5 29 -11 4 -8 -3 -9 -26 -4 -24 5 -31 4 -25
-5 4 -7 -1 -13 -14 -17 -16 -4 -20 -11 -16 -24 5 -14 1 -19 -13 -19 -10 0 -21
-3 -25 -6 -8 -8 14 -54 25 -54 5 0 6 -4 3 -10 -3 -5 -14 -10 -24 -10 -28 0
-46 -26 -31 -45 9 -10 9 -15 1 -15 -6 0 -11 4 -11 9 0 4 -11 6 -25 3 -20 -3
-24 -8 -19 -28 4 -15 2 -24 -6 -24 -7 0 -9 -8 -5 -21 5 -15 4 -19 -4 -15 -6 4
-16 4 -22 0 -7 -4 -1 -12 17 -20 29 -12 29 -12 4 -14 -25 -1 -25 -1 -5 -16 11
-8 46 -29 79 -47 65 -35 59 -51 -7 -19 -39 19 -75 33 -87 34 -3 0 -22 7 -43
16 -31 12 -41 12 -47 2 -4 -7 -13 -9 -19 -6 -21 14 -11 -6 18 -33 l29 -27 -29
4 c-18 3 -29 10 -29 20 0 12 -3 13 -11 5 -6 -6 -28 -10 -48 -7 -20 2 -28 1
-18 -2 9 -3 17 -10 17 -15 0 -5 6 -9 14 -9 8 0 17 -4 21 -9 3 -6 -10 -5 -30 0
-20 6 -48 8 -63 6 -26 -4 -26 -4 -4 -12 12 -4 22 -11 22 -15 0 -15 -29 -19
-58 -8 -38 15 -70 4 -52 -17 7 -8 21 -15 31 -15 10 0 21 -4 24 -10 7 -12 4
-12 -53 -1 -41 8 -42 8 -26 -10 15 -17 13 -18 -43 -12 -32 3 -76 12 -98 19
-23 8 -43 10 -49 4 -5 -5 11 -11 37 -15 42 -7 45 -9 34 -26 -14 -23 -30 -24
-51 -4 -20 20 -27 19 -54 -10 -18 -19 -21 -28 -13 -43 10 -19 6 -32 -11 -32
-5 0 -7 4 -4 9 8 12 -50 35 -69 27 -9 -3 -14 -10 -11 -15 7 -11 -17 -21 -52
-21 -28 0 -170 -46 -189 -62 -7 -6 -10 -15 -7 -20 4 -6 -15 -7 -52 -2 -77 10
-93 8 -114 -11 -11 -10 -23 -14 -29 -11 -5 4 -49 9 -97 11 -49 3 -91 10 -94
16 -4 5 -23 9 -43 7 -20 -1 -34 -4 -32 -7 3 -2 -2 -12 -11 -22 -10 -11 -16
-35 -16 -59 1 -39 -10 -53 -22 -27 -3 6 -3 1 0 -13 4 -14 11 -26 15 -28 5 -2
2 -10 -6 -19 -8 -8 -15 -24 -15 -36 0 -12 -5 -29 -11 -37 -9 -13 -10 -12 -5 3
7 22 -10 23 -18 1 -6 -16 -8 -16 -24 0 -10 9 -26 16 -35 16 -23 0 -21 16 3 33
18 13 19 15 5 21 -19 7 -54 -29 -55 -57 0 -15 -2 -16 -14 -5 -11 10 -11 16 -1
33 21 32 28 84 15 100 -7 8 -9 15 -4 15 5 0 -1 7 -13 15 -18 13 -26 13 -43 3
-11 -7 -20 -18 -20 -25 0 -7 -4 -13 -10 -13 -5 0 -10 12 -10 26 0 21 -3 25
-17 19 -10 -4 -30 -11 -46 -15 -15 -5 -48 -30 -73 -57 -26 -26 -43 -42 -40
-35 5 7 1 12 -9 12 -9 0 -13 -4 -10 -10 3 -5 -3 -10 -14 -10 -11 0 -27 -7 -35
-16 -14 -13 -14 -17 -2 -30 8 -8 24 -14 36 -14 11 0 23 -7 26 -15 4 -8 10 -12
15 -9 5 3 12 -2 15 -11 14 -35 171 -103 252 -108 6 0 12 -4 12 -8 0 -4 19 -10
43 -14 82 -13 148 -38 303 -119 31 -16 217 -27 230 -13 4 4 14 3 23 -1 9 -4
30 -6 46 -5 17 1 37 3 45 4 8 0 31 -2 50 -5 19 -3 75 -8 123 -11 107 -7 105
-6 244 -97 76 -49 101 -53 158 -25 27 13 85 68 85 81 0 13 31 53 78 104 17 19
32 38 32 42 0 5 22 6 49 4 28 -3 52 0 56 6 3 5 41 10 86 10 66 0 82 3 99 20
11 11 28 20 37 20 15 0 15 1 -1 13 -16 12 -16 14 7 26 32 17 52 55 49 92 -2
21 2 29 14 29 10 0 14 5 11 15 -4 8 -2 17 3 20 5 3 7 12 3 20 -3 8 -1 15 4 15
12 0 53 77 53 101 0 11 9 21 23 24 14 4 29 21 40 46 11 26 23 39 36 39 11 0
23 5 27 11 3 6 16 8 29 5 40 -10 36 18 -5 38 -55 26 -63 67 -31 151 11 27 34
95 51 150 27 84 122 299 140 315 44 41 55 140 18 171 -13 10 -30 18 -39 19
-18 0 -81 29 -89 41 -8 12 -89 28 -136 29 -27 0 -50 -7 -65 -19z m201 -26 c13
-13 12 -15 -6 -15 -25 0 -74 22 -74 34 0 13 62 -2 80 -19z m-122 -73 c2 -7 -9
-5 -27 4 -17 9 -28 20 -25 25 7 11 46 -11 52 -29z m-91 -148 c-3 -3 -12 -4
-19 -1 -8 3 -5 6 6 6 11 1 17 -2 13 -5z m290 -10 c-3 -3 -12 -4 -19 -1 -8 3
-5 6 6 6 11 1 17 -2 13 -5z m-487 -655 c0 -5 -4 -9 -10 -9 -5 0 -10 7 -10 16
0 8 5 12 10 9 6 -3 10 -10 10 -16z m-1380 -119 c0 -5 -8 -10 -17 -10 -15 0
-16 2 -3 10 19 12 20 12 20 0z m369 -24 c-3 -3 -11 5 -18 17 -13 21 -12 21 5
5 10 -10 16 -20 13 -22z m-849 -36 c9 0 7 -6 -5 -20 -23 -25 -38 -26 -30 -1 3
11 1 22 -5 26 -6 3 -7 11 -4 17 5 7 11 5 19 -5 7 -10 18 -17 25 -17z m120 -20
c0 -5 -4 -10 -10 -10 -5 0 -10 5 -10 10 0 6 5 10 10 10 6 0 10 -4 10 -10z"/>
<path d="M1348 2123 c6 -2 18 -2 25 0 6 3 1 5 -13 5 -14 0 -19 -2 -12 -5z"/>
<path d="M3956 2081 c-3 -5 -18 -12 -32 -15 -14 -4 -49 -18 -77 -31 -56 -28
-61 -29 -53 -16 12 19 -44 -3 -73 -30 -17 -15 -49 -34 -71 -40 -29 -9 -40 -18
-41 -33 -1 -18 -2 -18 -8 4 -14 45 -66 14 -57 -33 4 -20 2 -27 -7 -24 -18 6
-47 -11 -47 -28 0 -8 9 -20 20 -27 11 -7 20 -18 20 -24 0 -18 38 -24 51 -8 20
25 29 15 23 -25 -4 -24 -2 -41 5 -45 6 -4 11 -18 11 -31 0 -20 7 -25 36 -31
19 -3 53 -4 75 -1 45 6 47 2 17 -30 -12 -13 -18 -26 -15 -30 8 -7 87 75 87 90
0 18 -35 35 -61 30 -32 -6 -53 18 -54 62 -1 24 2 32 12 28 11 -4 11 0 3 21 -7
18 -6 26 2 26 6 0 52 15 102 33 72 25 100 41 136 77 43 43 71 101 62 128 -4
14 -58 17 -66 3z m-391 -250 c-6 -21 -45 -30 -45 -12 0 11 42 43 48 37 2 -3 1
-14 -3 -25z"/>
<path d="M3653 2058 c3 -10 2 -18 -4 -18 -6 0 -9 -6 -6 -12 2 -7 -3 -18 -12
-25 -14 -11 -14 -12 4 -13 29 0 49 54 27 72 -13 11 -15 10 -9 -4z"/>
<path d="M4780 2040 c0 -5 5 -10 10 -10 6 0 10 5 10 10 0 6 -4 10 -10 10 -5 0
-10 -4 -10 -10z"/>
<path d="M1365 1952 c-23 -5 -45 -21 -45 -33 0 -9 71 0 83 11 12 11 -15 27
-38 22z"/>
<path d="M2758 1872 c-42 -5 -36 -20 22 -63 45 -32 96 -53 110 -44 6 4 21 -1
32 -12 16 -13 22 -15 25 -5 4 10 8 10 19 1 9 -7 32 -10 64 -6 40 5 50 3 50 -8
0 -8 -6 -15 -14 -15 -10 0 -12 -7 -9 -21 6 -21 7 -21 19 -4 12 16 13 13 10
-23 -2 -23 1 -42 5 -42 5 0 9 -5 9 -10 0 -6 -8 -5 -19 2 -15 9 -23 9 -36 -2
-9 -7 -14 -19 -11 -26 3 -8 -3 -18 -12 -23 -14 -8 -15 -12 -4 -22 9 -10 15
-10 24 -1 7 7 21 12 33 12 11 0 35 9 53 20 18 11 40 20 50 20 19 0 72 45 72
61 0 5 -11 7 -25 3 -21 -5 -25 -3 -25 17 0 13 -3 48 -6 76 l-7 53 39 -4 c22
-2 48 -7 59 -11 13 -5 16 -4 7 2 -7 5 -10 17 -6 26 3 10 1 17 -5 17 -7 0 -22
9 -33 20 -19 17 -31 19 -92 15 -67 -6 -353 -6 -365 -2 -4 2 -18 1 -33 -1z"/>
<path d="M3558 1523 c-21 -9 -38 -20 -38 -24 0 -5 -6 -9 -13 -9 -7 0 -21 -9
-31 -21 -14 -17 -25 -20 -54 -15 -20 4 -59 10 -87 14 -27 4 -56 11 -62 15 -8
5 -13 3 -13 -6 0 -8 17 -28 37 -43 103 -80 122 -107 88 -120 -11 -5 -12 -9 -2
-25 10 -16 9 -22 -3 -30 -11 -8 -6 -9 20 -3 19 4 51 8 71 8 20 1 36 6 36 11 0
6 1 19 2 30 2 18 3 18 16 -5 l14 -25 1 29 c0 22 4 27 16 22 14 -5 15 -4 4 9
-7 9 -19 14 -25 11 -7 -2 -17 -1 -24 3 -8 5 0 18 24 39 38 35 75 100 75 132 0
23 -2 23 -52 3z"/>
<path d="M3880 1330 c0 -5 5 -10 11 -10 5 0 7 5 4 10 -3 6 -8 10 -11 10 -2 0
-4 -4 -4 -10z"/>
<path d="M5157 1173 c-4 -3 -7 -14 -7 -23 0 -10 -6 -23 -14 -29 -22 -18 -10
-53 26 -83 l33 -27 3 62 c2 34 0 72 -3 84 -5 22 -24 30 -38 16z"/>
<path d="M2390 1080 c0 -5 5 -10 10 -10 6 0 10 5 10 10 0 6 -4 10 -10 10 -5 0
-10 -4 -10 -10z"/>
<path d="M2473 1078 c4 -12 2 -15 -9 -11 -7 3 -14 1 -14 -5 0 -10 23 -22 41
-22 15 0 10 27 -8 41 -15 12 -16 12 -10 -3z"/>
<path d="M2940 1044 c0 -14 4 -23 9 -20 5 3 7 15 4 26 -7 28 -13 25 -13 -6z"/>
<path d="M2395 1050 c-3 -5 1 -10 9 -10 9 0 16 5 16 10 0 6 -4 10 -9 10 -6 0
-13 -4 -16 -10z"/>
<path d="M0 142 c0 -104 2 -122 16 -122 8 0 12 -5 9 -10 -4 -7 52 -10 162 -10
164 1 167 1 138 18 -17 9 -57 35 -90 56 -33 22 -77 50 -97 64 -20 13 -60 47
-87 75 l-51 52 0 -123z"/>
</g>
</svg>
